<?xml version="1.0" standalone="no"?>
<!DOCTYPE svg PUBLIC "-//W3C//DTD SVG 20010904//EN"
 "http://www.w3.org/TR/2001/REC-SVG-20010904/DTD/svg10.dtd">
<svg version="1.0" xmlns="http://www.w3.org/2000/svg"
 width="500.000000pt" height="500.000000pt" viewBox="0 0 500.000000 500.000000"
 preserveAspectRatio="xMidYMid meet">
<metadata>
Created by potrace 1.11, written by Peter Selinger 2001-2013
</metadata>
<g transform="translate(0.000000,500.000000) scale(0.100000,-0.100000)"
fill="#000000" stroke="none">
<path d="M2417 4875 c-1 -1 -50 -5 -109 -9 -59 -3 -113 -8 -120 -11 -7 -2 -31
-6 -53 -9 -74 -11 -110 -17 -170 -33 -33 -8 -69 -17 -80 -19 -116 -23 -420
-146 -550 -223 -16 -10 -48 -28 -70 -41 -158 -88 -389 -282 -549 -460 -49 -55
-216 -274 -216 -284 0 -3 -13 -24 -29 -48 -112 -168 -260 -533 -296 -728 -45
-243 -48 -280 -49 -485 -1 -230 4 -296 33 -460 41 -224 105 -415 211 -631 276
-560 774 -996 1370 -1196 147 -50 261 -78 376 -94 27 -3 51 -8 54 -9 3 -2 46
-7 95 -11 162 -15 459 -9 565 11 14 2 41 7 60 9 193 26 477 119 683 223 99 50
270 154 333 203 21 16 46 36 55 43 192 145 425 402 556 612 143 229 260 513
309 750 21 102 39 221 50 330 6 71 7 325 0 375 -3 19 -8 64 -11 100 -9 89 -51
292 -79 387 -156 520 -482 972 -919 1277 -300 209 -660 355 -994 401 -21 3
-47 7 -58 10 -51 10 -388 27 -398 20z"/>
</g>
</svg>
